# xmcd CD database file
#
# Track frame offsets:
#	150
#	13952
#	27827
#	41352
#	54847
#	66385
#	80250
#	94622
#	107785
#	118735
#	133512
#	148120
#	174535
#	186675
#	200235
#	215134
#	229600
#	243910
#
# Disc length: 3718 seconds
#
# Revision: 3
# Processed by: cddbd v1.5.2PL0 Copyright (c) Steve Scherf et al.
# Submitted via: CDex 1.51
#
DISCID=090e8412
DTITLE=Benny Goodman - Big Band  {1939-1946}
DYEAR=1997
DGENRE=Jazz
TTITLE0=Honeysuckle Rose
TTITLE1=Somebody Stole My Gal
TTITLE2=How High The Moon ¿
TTITLE3=Cherry
TTITLE4=The Earl
TTITLE5=Scarecrow
TTITLE6=My Old Flame
TTITLE7=Clarinet A La King
TTITLE8=The Darktown Strutters' Ball
TTITLE9=Six Flats Unfurnished
TTITLE10=After You've Gone
TTITLE11=Gotta Be This Or That
TTITLE12=Clarinade
TTITLE13=Fascinating Rhythm
TTITLE14=Rattle And Roll
TTITLE15=Swing Angel
TTITLE16=All The Cats Join In
TTITLE17=Oh, Baby
EXTD=YEAR: 1997
EXTT0=
EXTT1=
EXTT2=
EXTT3=
EXTT4=
EXTT5=
EXTT6=
EXTT7=
EXTT8=
EXTT9=
EXTT10=
EXTT11=
EXTT12=
EXTT13=
EXTT14=
EXTT15=
EXTT16=
EXTT17=
PLAYORDER=
